{"title":"Doctor Doctor - S01E02","uid":15897738,"size":360092725,"categoryP":"video","categoryS":"tv_shows","magnet":"?xt=urn:btih:e197908be0b42e90f0a8d69b0093c357d45b1912&amp;dn=Doctor+Doctor+-+S01E02&amp;tr=udp%3A%2F%2Ftracker.leechers-paradise.org%3A6969&amp;tr=udp%3A%2F%2Fzer0day.ch%3A1337&amp;tr=udp%3A%2F%2Fopen.demonii.com%3A1337&amp;tr=udp%3A%2F%2Ftracker.coppersurfer.tk%3A6969&amp;tr=udp%3A%2F%2Fexodus.desync.com%3A6969","seeders":18,"leechers":3,"uploader":"Bullrout","files":1,"time":1474977010,"description":"Doctor Doctor - S01E02\r\n\r\nHugh has a shocking introduction to outback medicine when he attends a farm accident. Inspired by Meryl's dodgy dealings, Hugh blackmails mine boss Big Nathan into making a huge donation to the Hospital.\r\n\r\nComplete name : Doctor Doctor - S01E02.mp4\r\nFormat : MPEG-4\r\nFormat profile : Base Media / Version 2\r\nCodec ID : mp42 (mp42/isom/avc1)\r\nFile size : 343 MiB\r\nDuration : 43 min 35 s\r\nOverall bit rate mode : Variable\r\nOverall bit rate : 1 101 kb/s\r\n\r\nVideo\r\nID : 2\r\nFormat : AVC\r\nFormat/Info : Advanced Video Codec\r\nFormat profile :   \r\nFormat settings, CABAC : Yes\r\nFormat settings, ReFrames : 3 frames\r\nCodec ID : avc1\r\nCodec ID/Info : Advanced Video Coding\r\nDuration : 43 min 35 s\r\nBit rate mode : Variable\r\nBit rate : 970 kb/s\r\nMaximum bit rate : 1 000 kb/s\r\nWidth : 720 pixels\r\nHeight : 404 pixels\r\nDisplay aspect ratio : 16:9\r\nOriginal display aspect ratio : 16:9\r\nFrame rate mode : Constant\r\nFrame rate : 25.000 FPS\r\nStandard : PAL\r\nColor space : YUV\r\nChroma subsampling : 4:2:0\r\nBit depth : 8 bits\r\nScan type : Progressive\r\nBits/(Pixel*Frame) : 0.133\r\nStream size : 302 MiB (88%)\r\nWriting library : x264 core 112\r\nColor range : Limited\r\nColor primaries : BT.601 PAL\r\nTransfer characteristics : BT.470 System B, BT.470 System G\r\nMatrix coefficients : BT.601\r\n\r\nAudio\r\nID : 1\r\nFormat : AAC\r\nFormat/Info : Advanced Audio Codec\r\nFormat profile : LC\r\nCodec ID : 40\r\nDuration : 43 min 35 s\r\nBit rate mode : Variable\r\nBit rate : 128 kb/s\r\nMaximum bit rate : 576 kb/s\r\nChannel(s) : 2 channels\r\nChannel positions : Front: L R\r\nSampling rate : 48.0 kHz\r\nFrame rate : 46.875 FPS (1024 spf)\r\nCompression mode : Lossy\r\nStream size : 39.9 MiB (12%)","torrent":{"xt":"urn:btih:e197908be0b42e90f0a8d69b0093c357d45b1912","amp;dn":"Doctor+Doctor+-+S01E02","amp;tr":["udp%3A%2F%2Ftracker.leechers-paradise.org%3A6969","udp%3A%2F%2Fzer0day.ch%3A1337","udp%3A%2F%2Fopen.demonii.com%3A1337","udp%3A%2F%2Ftracker.coppersurfer.tk%3A6969","udp%3A%2F%2Fexodus.desync.com%3A6969"],"infoHash":"e197908be0b42e90f0a8d69b0093c357d45b1912","infoHashBuffer":{"type":"Buffer","data":[225,151,144,139,224,180,46,144,240,168,214,155,0,147,195,87,212,91,25,18]},"announce":[],"urlList":[]}}